<?xml version="1.0" standalone="no"?>
<!DOCTYPE svg PUBLIC "-//W3C//DTD SVG 20010904//EN"
 "http://www.w3.org/TR/2001/REC-SVG-20010904/DTD/svg10.dtd">
<svg version="1.0" xmlns="http://www.w3.org/2000/svg"
 width="512.000000pt" height="512.000000pt" viewBox="0 0 512.000000 512.000000"
 preserveAspectRatio="xMidYMid meet">

<g transform="translate(0.000000,512.000000) scale(0.100000,-0.100000)"
fill="#000000" stroke="none">
<path d="M525 5105 c-218 -41 -397 -186 -470 -380 -48 -128 -54 -207 -54 -807
-1 -551 4 -661 35 -783 46 -180 167 -319 340 -389 161 -66 333 -77 1009 -67
l530 7 80 28 c237 82 388 257 435 506 7 35 11 288 10 690 0 715 0 713 -72 859
-74 151 -216 270 -388 327 -51 17 -108 19 -720 21 -516 1 -681 -1 -735 -12z
m1335 -530 c54 -48 54 -41 51 -690 -2 -560 -3 -602 -20 -625 -36 -50 -26 -50
-671 -50 -582 0 -606 1 -637 20 -60 36 -58 11 -58 665 0 674 -2 654 69 686 39
18 74 19 642 16 586 -2 603 -3 624 -22z" fill="rgba(255, 255, 255,1)"/>
<path d="M3218 5110 c-137 -23 -288 -105 -371 -201 -62 -71 -115 -164 -140
-244 -22 -69 -22 -76 -22 -770 l0 -700 23 -65 c83 -232 271 -395 506 -439 37
-7 280 -11 674 -11 704 0 732 2 888 79 145 72 268 225 308 384 30 118 36 261
33 852 -4 657 -2 640 -75 779 -53 102 -182 229 -283 279 -135 66 -140 67 -854
66 -352 -1 -661 -5 -687 -9z m1308 -529 c71 -32 69 -11 69 -686 0 -557 -1
-603 -18 -628 -39 -60 -21 -59 -684 -57 -655 1 -646 0 -671 55 -19 41 -17
1236 2 1273 13 25 37 43 76 55 8 3 278 6 600 6 549 1 588 -1 626 -18z" fill="rgba(255, 255, 255,1)"/>
<path d="M542 2429 c-193 -29 -371 -155 -460 -326 -80 -154 -77 -125 -77 -868
0 -737 0 -738 71 -885 49 -104 162 -218 266 -270 151 -75 149 -75 898 -75 617
0 669 1 725 18 107 33 195 86 275 167 85 85 129 155 168 262 l26 73 8 550 c8
599 2 738 -37 890 -60 238 -199 382 -432 447 -76 22 -93 22 -723 24 -355 1
-673 -2 -708 -7z m1330 -548 l33 -29 3 -619 2 -619 -23 -35 c-40 -60 -38 -60
-688 -57 -576 3 -588 3 -616 24 -15 11 -36 36 -46 55 -16 32 -17 77 -15 634 3
552 4 602 20 625 36 50 22 49 680 50 l618 0 32 -29z" fill="rgba(255, 255, 255,1)"/>
<path d="M3765 2433 c-290 -36 -526 -151 -730 -357 -224 -226 -336 -474 -352
-781 -22 -425 199 -860 555 -1095 304 -202 683 -252 1042 -139 485 152 832
644 832 1179 0 327 -115 602 -351 840 -148 150 -288 237 -479 299 -149 49
-373 72 -517 54z m360 -557 c114 -36 196 -89 280 -178 78 -83 131 -177 161
-288 25 -88 25 -280 1 -370 -82 -310 -348 -512 -672 -512 -319 0 -578 201
-661 512 -24 89 -24 272 -1 360 55 211 210 391 396 461 103 39 169 49 296 45
95 -3 137 -9 200 -30z" fill="rgba(255, 255, 255,1)"/>
</g>
</svg>
