<?xml version="1.0" standalone="no"?>
<!DOCTYPE svg PUBLIC "-//W3C//DTD SVG 20010904//EN"
 "http://www.w3.org/TR/2001/REC-SVG-20010904/DTD/svg10.dtd">
<svg version="1.0" xmlns="http://www.w3.org/2000/svg"
 width="512.000000pt" height="512.000000pt" viewBox="0 0 512.000000 512.000000"
 preserveAspectRatio="xMidYMid meet">

<g transform="translate(0.000000,512.000000) scale(0.100000,-0.100000)"
fill="#000000" stroke="none">
<path d="M910 4674 c-226 -59 -409 -245 -466 -474 -23 -90 -15 -292 16 -410
67 -253 229 -498 459 -691 147 -124 137 -121 214 -66 195 139 387 372 479 582
72 162 109 382 88 522 -23 154 -100 299 -212 398 -61 54 -209 128 -286 144
-73 15 -226 13 -292 -5z m270 -323 c78 -30 134 -82 172 -158 27 -56 32 -77 32
-138 0 -178 -142 -320 -320 -319 -219 2 -365 210 -297 425 22 68 115 166 183
191 63 23 168 23 230 -1z" fill="rgba(255, 255, 255,1)"/>
<path d="M1804 3343 c-49 -89 -103 -170 -181 -270 l-64 -82 693 -3 c788 -4
744 1 842 -89 74 -67 100 -130 101 -234 0 -68 -4 -89 -28 -137 -30 -62 -83
-115 -149 -150 l-43 -23 -860 -6 c-743 -5 -869 -8 -925 -22 -370 -91 -635
-344 -732 -698 -20 -72 -23 -107 -22 -249 0 -150 3 -173 28 -254 51 -169 128
-298 246 -416 116 -116 247 -194 416 -247 l89 -28 1109 -3 1108 -3 -30 38
c-52 67 -153 226 -193 305 l-39 77 -937 3 -938 3 -66 22 c-227 78 -373 279
-372 513 0 97 12 149 55 236 58 118 162 211 298 264 l65 25 870 6 c782 5 876
7 927 22 261 78 462 281 529 534 30 111 30 270 0 378 -61 220 -196 383 -396
480 -155 75 -159 75 -799 75 l-564 0 -38 -67z" fill="rgba(255, 255, 255,1)"/>
<path d="M3902 2116 c-82 -21 -211 -89 -274 -146 -115 -102 -195 -261 -212
-418 -14 -128 27 -350 92 -497 92 -210 284 -443 479 -582 77 -55 66 -58 214
65 230 193 393 439 460 698 33 127 34 347 2 449 -60 188 -208 341 -401 413
-55 20 -89 26 -187 28 -78 2 -139 -1 -173 -10z m263 -323 c68 -24 164 -120
188 -188 73 -210 -79 -429 -298 -429 -126 0 -230 66 -287 182 -28 55 -32 76
-32 138 0 63 4 81 34 140 38 75 102 132 175 158 56 20 160 20 220 -1z" fill="rgba(255, 255, 255,1)"/>
</g>
</svg>
